# xmcd CD database file
#
# Track frame offsets:
#	183
#	30908
#	120145
#
# Disc length: 2944 seconds
#
# Revision: 0
# Processed by: cddbd v1.4PL0 Copyright (c) Steve Scherf et al.
# Submitted via: CDex 1.50
#
DISCID=110b7e03
DTITLE=Friedrich Gulda - Der Wanderer
DYEAR=1900
DGENRE=Jazz
TTITLE0=Der Wanderer
TTITLE1=G'schichten aus dem Golowinerwald
TTITLE2=Out Of My Head, Heart And Body
EXTD=
EXTT0=
EXTT1=
EXTT2=
PLAYORDER=
